# xmcd
# 
# Track frame offsets:
#     182
#     18465
#     33305
#     51372
#     67110
#     82687
#     97302
#     114442
#     129047
#     145135
#     161177
#     181547
# 
# Disc length: 2706
# 
# Revision: 5
# Processed by: cddbd v1.5.2PL0 Copyright (c) Steve Scherf et al.
# Submitted via: fre:ac v1.0.27
# 
DISCID=990a900c
DTITLE=Lonestar - Lonely Grill
DYEAR=1999
DGENRE=Country
TTITLE0=Saturday Night
TTITLE1=Simple As That
TTITLE2=Amazed
TTITLE3=What About Now
TTITLE4=Tell Her
TTITLE5=Don't Let's Talk About Lisa
TTITLE6=I've Gotta Find You
TTITLE7=You Don't Know What Love Is
TTITLE8=All The Way
TTITLE9=Smile
TTITLE10=Lonely Grill
TTITLE11=Everything's Changed (Acoustic Version)
EXTD=
EXTT0=
EXTT1=
EXTT2=
EXTT3=
EXTT4=
EXTT5=
EXTT6=
EXTT7=
EXTT8=
EXTT9=
EXTT10=
EXTT11=
PLAYORDER=
